<?xml version="1.0" encoding="UTF-8" standalone="no"?>
<!DOCTYPE svg PUBLIC "-//W3C//DTD SVG 1.1//EN"
 "http://www.w3.org/Graphics/SVG/1.1/DTD/svg11.dtd">
<!-- Generated by graphviz version 2.38.0 (20140413.2041)
 -->
<!-- Title: G Pages: 1 -->
<svg width="1375pt" height="284pt"
 viewBox="0.00 0.00 1375.20 284.01" xmlns="http://www.w3.org/2000/svg" xmlns:xlink="http://www.w3.org/1999/xlink">
<g id="graph0" class="graph" transform="scale(1 1) rotate(0) translate(21.6 262.413)">
<title>G</title>
<polygon fill="#111111" stroke="none" points="-21.6,21.6 -21.6,-262.413 1353.6,-262.413 1353.6,21.6 -21.6,21.6"/>
<!-- config/index.js -->
<g id="node1" class="node"><title>config/index.js</title>
<path fill="none" stroke="#cfffac" d="M229.333,-240.813C229.333,-240.813 137.667,-240.813 137.667,-240.813 133.833,-240.813 130,-236.98 130,-233.146 130,-233.146 130,-225.48 130,-225.48 130,-221.646 133.833,-217.813 137.667,-217.813 137.667,-217.813 229.333,-217.813 229.333,-217.813 233.167,-217.813 237,-221.646 237,-225.48 237,-225.48 237,-233.146 237,-233.146 237,-236.98 233.167,-240.813 229.333,-240.813"/>
<text text-anchor="middle" x="183.5" y="-225.613" font-family="Arial" font-size="14.00" fill="#cfffac">config/index.js</text>
</g>
<!-- dataHandlers/GenericDataHandler.js -->
<g id="node2" class="node"><title>dataHandlers/GenericDataHandler.js</title>
<path fill="none" stroke="#cfffac" d="M1324.33,-99.813C1324.33,-99.813 1093.67,-99.813 1093.67,-99.813 1089.83,-99.813 1086,-95.9796 1086,-92.1463 1086,-92.1463 1086,-84.4796 1086,-84.4796 1086,-80.6463 1089.83,-76.813 1093.67,-76.813 1093.67,-76.813 1324.33,-76.813 1324.33,-76.813 1328.17,-76.813 1332,-80.6463 1332,-84.4796 1332,-84.4796 1332,-92.1463 1332,-92.1463 1332,-95.9796 1328.17,-99.813 1324.33,-99.813"/>
<text text-anchor="middle" x="1209" y="-84.613" font-family="Arial" font-size="14.00" fill="#cfffac">dataHandlers/GenericDataHandler.js</text>
</g>
<!-- dataHandlers/dataHandlerForA.js -->
<g id="node3" class="node"><title>dataHandlers/dataHandlerForA.js</title>
<path fill="none" stroke="#c6c5fe" d="M519.333,-47.813C519.333,-47.813 309.667,-47.813 309.667,-47.813 305.833,-47.813 302,-43.9796 302,-40.1463 302,-40.1463 302,-32.4796 302,-32.4796 302,-28.6463 305.833,-24.813 309.667,-24.813 309.667,-24.813 519.333,-24.813 519.333,-24.813 523.167,-24.813 527,-28.6463 527,-32.4796 527,-32.4796 527,-40.1463 527,-40.1463 527,-43.9796 523.167,-47.813 519.333,-47.813"/>
<text text-anchor="middle" x="414.5" y="-32.613" font-family="Arial" font-size="14.00" fill="#c6c5fe">dataHandlers/dataHandlerForA.js</text>
</g>
<!-- dataHandlers/dataHandlerForA.js&#45;&gt;dataHandlers/GenericDataHandler.js -->
<g id="edge1" class="edge"><title>dataHandlers/dataHandlerForA.js&#45;&gt;dataHandlers/GenericDataHandler.js</title>
<path fill="none" stroke="#757575" d="M527.16,-38.9551C654.05,-42.6107 867.259,-50.7337 1050,-67.313 1073.05,-69.4038 1097.9,-72.3695 1120.91,-75.4154"/>
<polygon fill="#757575" stroke="#757575" points="1120.62,-78.9075 1131,-76.7703 1121.55,-71.9699 1120.62,-78.9075"/>
</g>
<!-- dataHandlers/dataHandlerForB.js -->
<g id="node4" class="node"><title>dataHandlers/dataHandlerForB.js</title>
<path fill="none" stroke="#c6c5fe" d="M780.333,-221.813C780.333,-221.813 570.667,-221.813 570.667,-221.813 566.833,-221.813 563,-217.98 563,-214.146 563,-214.146 563,-206.48 563,-206.48 563,-202.646 566.833,-198.813 570.667,-198.813 570.667,-198.813 780.333,-198.813 780.333,-198.813 784.167,-198.813 788,-202.646 788,-206.48 788,-206.48 788,-214.146 788,-214.146 788,-217.98 784.167,-221.813 780.333,-221.813"/>
<text text-anchor="middle" x="675.5" y="-206.613" font-family="Arial" font-size="14.00" fill="#c6c5fe">dataHandlers/dataHandlerForB.js</text>
</g>
<!-- dataHandlers/dataHandlerForB.js&#45;&gt;dataHandlers/GenericDataHandler.js -->
<g id="edge2" class="edge"><title>dataHandlers/dataHandlerForB.js&#45;&gt;dataHandlers/GenericDataHandler.js</title>
<path fill="none" stroke="#757575" d="M788.235,-199.785C863.205,-191.064 963.66,-176.158 1050,-152.313 1094.73,-139.961 1143.93,-118.734 1175.35,-104.135"/>
<polygon fill="#757575" stroke="#757575" points="1176.94,-107.254 1184.51,-99.8349 1173.97,-100.918 1176.94,-107.254"/>
</g>
<!-- dataHandlers/dataHandlerForC.js -->
<g id="node5" class="node"><title>dataHandlers/dataHandlerForC.js</title>
<path fill="none" stroke="#c6c5fe" d="M1042.33,-99.813C1042.33,-99.813 831.667,-99.813 831.667,-99.813 827.833,-99.813 824,-95.9796 824,-92.1463 824,-92.1463 824,-84.4796 824,-84.4796 824,-80.6463 827.833,-76.813 831.667,-76.813 831.667,-76.813 1042.33,-76.813 1042.33,-76.813 1046.17,-76.813 1050,-80.6463 1050,-84.4796 1050,-84.4796 1050,-92.1463 1050,-92.1463 1050,-95.9796 1046.17,-99.813 1042.33,-99.813"/>
<text text-anchor="middle" x="937" y="-84.613" font-family="Arial" font-size="14.00" fill="#c6c5fe">dataHandlers/dataHandlerForC.js</text>
</g>
<!-- dataHandlers/dataHandlerForC.js&#45;&gt;dataHandlers/GenericDataHandler.js -->
<g id="edge3" class="edge"><title>dataHandlers/dataHandlerForC.js&#45;&gt;dataHandlers/GenericDataHandler.js</title>
<path fill="none" stroke="#757575" d="M1050.16,-88.313C1058.59,-88.313 1067.15,-88.313 1075.69,-88.313"/>
<polygon fill="#757575" stroke="#757575" points="1075.71,-91.8131 1085.71,-88.313 1075.71,-84.8131 1075.71,-91.8131"/>
</g>
<!-- event/index.js -->
<g id="node6" class="node"><title>event/index.js</title>
<path fill="none" stroke="#cfffac" d="M227.333,-199.813C227.333,-199.813 139.667,-199.813 139.667,-199.813 135.833,-199.813 132,-195.98 132,-192.146 132,-192.146 132,-184.48 132,-184.48 132,-180.646 135.833,-176.813 139.667,-176.813 139.667,-176.813 227.333,-176.813 227.333,-176.813 231.167,-176.813 235,-180.646 235,-184.48 235,-184.48 235,-192.146 235,-192.146 235,-195.98 231.167,-199.813 227.333,-199.813"/>
<text text-anchor="middle" x="183.5" y="-184.613" font-family="Arial" font-size="14.00" fill="#cfffac">event/index.js</text>
</g>
<!-- index.js -->
<g id="node7" class="node"><title>index.js</title>
<path fill="none" stroke="#c6c5fe" d="M57.3333,-159.813C57.3333,-159.813 7.66667,-159.813 7.66667,-159.813 3.83333,-159.813 0,-155.98 0,-152.146 0,-152.146 0,-144.48 0,-144.48 0,-140.646 3.83333,-136.813 7.66667,-136.813 7.66667,-136.813 57.3333,-136.813 57.3333,-136.813 61.1667,-136.813 65,-140.646 65,-144.48 65,-144.48 65,-152.146 65,-152.146 65,-155.98 61.1667,-159.813 57.3333,-159.813"/>
<text text-anchor="middle" x="32.5" y="-144.613" font-family="Arial" font-size="14.00" fill="#c6c5fe">index.js</text>
</g>
<!-- index.js&#45;&gt;config/index.js -->
<g id="edge4" class="edge"><title>index.js&#45;&gt;config/index.js</title>
<path fill="none" stroke="#757575" d="M43.204,-160.08C55.2968,-173.959 77.2796,-196.729 101,-209.313 106.967,-212.478 113.445,-215.153 120.054,-217.411"/>
<polygon fill="#757575" stroke="#757575" points="119.198,-220.81 129.786,-220.43 121.272,-214.124 119.198,-220.81"/>
</g>
<!-- index.js&#45;&gt;event/index.js -->
<g id="edge5" class="edge"><title>index.js&#45;&gt;event/index.js</title>
<path fill="none" stroke="#757575" d="M65.0991,-156.796C83.9153,-161.847 108.27,-168.385 129.915,-174.196"/>
<polygon fill="#757575" stroke="#757575" points="129.075,-177.594 139.64,-176.807 130.89,-170.834 129.075,-177.594"/>
</g>
<!-- services/serviceForA.js -->
<g id="node8" class="node"><title>services/serviceForA.js</title>
<path fill="none" stroke="#ff6c60" d="M258.333,-119.813C258.333,-119.813 108.667,-119.813 108.667,-119.813 104.833,-119.813 101,-115.98 101,-112.146 101,-112.146 101,-104.48 101,-104.48 101,-100.646 104.833,-96.813 108.667,-96.813 108.667,-96.813 258.333,-96.813 258.333,-96.813 262.167,-96.813 266,-100.646 266,-104.48 266,-104.48 266,-112.146 266,-112.146 266,-115.98 262.167,-119.813 258.333,-119.813"/>
<text text-anchor="middle" x="183.5" y="-104.613" font-family="Arial" font-size="14.00" fill="#ff6c60">services/serviceForA.js</text>
</g>
<!-- index.js&#45;&gt;services/serviceForA.js -->
<g id="edge6" class="edge"><title>index.js&#45;&gt;services/serviceForA.js</title>
<path fill="none" stroke="#757575" d="M65.0991,-139.83C83.9153,-134.779 108.27,-128.24 129.915,-122.43"/>
<polygon fill="#757575" stroke="#757575" points="130.89,-125.792 139.64,-119.819 129.075,-119.031 130.89,-125.792"/>
</g>
<!-- services/serviceForB.js -->
<g id="node9" class="node"><title>services/serviceForB.js</title>
<path fill="none" stroke="#ff6c60" d="M489.333,-183.813C489.333,-183.813 339.667,-183.813 339.667,-183.813 335.833,-183.813 332,-179.98 332,-176.146 332,-176.146 332,-168.48 332,-168.48 332,-164.646 335.833,-160.813 339.667,-160.813 339.667,-160.813 489.333,-160.813 489.333,-160.813 493.167,-160.813 497,-164.646 497,-168.48 497,-168.48 497,-176.146 497,-176.146 497,-179.98 493.167,-183.813 489.333,-183.813"/>
<text text-anchor="middle" x="414.5" y="-168.613" font-family="Arial" font-size="14.00" fill="#ff6c60">services/serviceForB.js</text>
</g>
<!-- index.js&#45;&gt;services/serviceForB.js -->
<g id="edge7" class="edge"><title>index.js&#45;&gt;services/serviceForB.js</title>
<path fill="none" stroke="#757575" d="M65.245,-150.318C120.982,-153.838 238.396,-161.254 321.446,-166.499"/>
<polygon fill="#757575" stroke="#757575" points="321.451,-170.006 331.651,-167.144 321.892,-163.02 321.451,-170.006"/>
</g>
<!-- services/serviceForC.js -->
<g id="node10" class="node"><title>services/serviceForC.js</title>
<path fill="none" stroke="#ff6c60" d="M750.833,-99.813C750.833,-99.813 600.167,-99.813 600.167,-99.813 596.333,-99.813 592.5,-95.9796 592.5,-92.1463 592.5,-92.1463 592.5,-84.4796 592.5,-84.4796 592.5,-80.6463 596.333,-76.813 600.167,-76.813 600.167,-76.813 750.833,-76.813 750.833,-76.813 754.667,-76.813 758.5,-80.6463 758.5,-84.4796 758.5,-84.4796 758.5,-92.1463 758.5,-92.1463 758.5,-95.9796 754.667,-99.813 750.833,-99.813"/>
<text text-anchor="middle" x="675.5" y="-84.613" font-family="Arial" font-size="14.00" fill="#ff6c60">services/serviceForC.js</text>
</g>
<!-- index.js&#45;&gt;services/serviceForC.js -->
<g id="edge8" class="edge"><title>index.js&#45;&gt;services/serviceForC.js</title>
<path fill="none" stroke="#757575" d="M43.8736,-136.476C56.2773,-122.954 78.2321,-100.943 101,-87.313 182.418,-38.5734 208.508,-31.5525 302,-15.313 400.525,1.80084 429.628,7.46394 527,-15.313 572.941,-26.0593 620.985,-53.3152 649.305,-71.311"/>
<polygon fill="#757575" stroke="#757575" points="647.482,-74.3003 657.779,-76.7957 651.285,-68.4238 647.482,-74.3003"/>
</g>
<!-- services/serviceForA.js&#45;&gt;dataHandlers/dataHandlerForA.js -->
<g id="edge9" class="edge"><title>services/serviceForA.js&#45;&gt;dataHandlers/dataHandlerForA.js</title>
<path fill="none" stroke="#757575" d="M210.712,-96.7933C234.272,-86.7432 269.991,-72.2539 302,-62.313 316.344,-57.8583 331.934,-53.7682 346.786,-50.2155"/>
<polygon fill="#757575" stroke="#757575" points="347.985,-53.5296 356.925,-47.844 346.39,-46.7135 347.985,-53.5296"/>
</g>
<!-- services/serviceForA.js&#45;&gt;services/serviceForB.js -->
<g id="edge11" class="edge"><title>services/serviceForA.js&#45;&gt;services/serviceForB.js</title>
<path fill="none" stroke="#757575" d="M249.032,-119.847C254.773,-121.665 260.493,-123.517 266,-125.313 282.034,-130.543 285.77,-132.726 302,-137.313 328.374,-144.766 358.683,-151.733 381.038,-157.982"/>
<polygon fill="#757575" stroke="#757575" points="380.126,-161.362 390.706,-160.801 382.086,-154.642 380.126,-161.362"/>
</g>
<!-- services/serviceForA.js&#45;&gt;services/serviceForC.js -->
<g id="edge12" class="edge"><title>services/serviceForA.js&#45;&gt;services/serviceForC.js</title>
<path fill="none" stroke="#757575" d="M266.239,-99.7912C353.373,-94.2288 491.069,-88.5315 582.086,-86.6684"/>
<polygon fill="#757575" stroke="#757575" points="582.19,-90.1672 592.12,-86.4753 582.055,-83.1685 582.19,-90.1672"/>
</g>
<!-- services/GenericService.js -->
<g id="node11" class="node"><title>services/GenericService.js</title>
<path fill="none" stroke="#cfffac" d="M1022.33,-143.813C1022.33,-143.813 851.667,-143.813 851.667,-143.813 847.833,-143.813 844,-139.98 844,-136.146 844,-136.146 844,-128.48 844,-128.48 844,-124.646 847.833,-120.813 851.667,-120.813 851.667,-120.813 1022.33,-120.813 1022.33,-120.813 1026.17,-120.813 1030,-124.646 1030,-128.48 1030,-128.48 1030,-136.146 1030,-136.146 1030,-139.98 1026.17,-143.813 1022.33,-143.813"/>
<text text-anchor="middle" x="937" y="-128.613" font-family="Arial" font-size="14.00" fill="#cfffac">services/GenericService.js</text>
</g>
<!-- services/serviceForA.js&#45;&gt;services/GenericService.js -->
<g id="edge10" class="edge"><title>services/serviceForA.js&#45;&gt;services/GenericService.js</title>
<path fill="none" stroke="#757575" d="M266.312,-115.94C278.274,-116.862 290.449,-117.695 302,-118.313 489.266,-128.339 708.015,-131.221 833.444,-132.027"/>
<polygon fill="#757575" stroke="#757575" points="833.777,-135.529 843.798,-132.09 833.82,-128.529 833.777,-135.529"/>
</g>
<!-- services/serviceForB.js&#45;&gt;dataHandlers/dataHandlerForB.js -->
<g id="edge13" class="edge"><title>services/serviceForB.js&#45;&gt;dataHandlers/dataHandlerForB.js</title>
<path fill="none" stroke="#757575" d="M493.911,-183.817C522.939,-188.076 556.044,-192.933 585.914,-197.316"/>
<polygon fill="#757575" stroke="#757575" points="585.506,-200.793 595.909,-198.782 586.523,-193.868 585.506,-200.793"/>
</g>
<!-- services/serviceForB.js&#45;&gt;services/serviceForA.js -->
<g id="edge15" class="edge"><title>services/serviceForB.js&#45;&gt;services/serviceForA.js</title>
<path fill="none" stroke="#757575" d="M331.978,-163.157C321.847,-160.707 311.66,-158.043 302,-155.313 285.77,-150.726 282.034,-148.543 266,-143.313 246.94,-137.096 225.321,-130.207 209.141,-123.763"/>
<polygon fill="#757575" stroke="#757575" points="210.413,-120.501 199.84,-119.819 207.68,-126.945 210.413,-120.501"/>
</g>
<!-- services/serviceForB.js&#45;&gt;services/serviceForC.js -->
<g id="edge16" class="edge"><title>services/serviceForB.js&#45;&gt;services/serviceForC.js</title>
<path fill="none" stroke="#757575" d="M438.485,-160.812C477.025,-145.485 555.952,-119.277 611.905,-102.739"/>
<polygon fill="#757575" stroke="#757575" points="613.106,-106.034 621.722,-99.8686 611.141,-99.3156 613.106,-106.034"/>
</g>
<!-- services/serviceForB.js&#45;&gt;services/GenericService.js -->
<g id="edge14" class="edge"><title>services/serviceForB.js&#45;&gt;services/GenericService.js</title>
<path fill="none" stroke="#757575" d="M497.295,-167.185C572.796,-162.313 688.017,-154.53 788,-146.313 802.77,-145.099 818.361,-143.725 833.66,-142.325"/>
<polygon fill="#757575" stroke="#757575" points="834.025,-145.806 843.661,-141.402 833.381,-138.836 834.025,-145.806"/>
</g>
<!-- services/serviceForC.js&#45;&gt;dataHandlers/dataHandlerForC.js -->
<g id="edge17" class="edge"><title>services/serviceForC.js&#45;&gt;dataHandlers/dataHandlerForC.js</title>
<path fill="none" stroke="#757575" d="M758.607,-88.313C776.103,-88.313 794.94,-88.313 813.575,-88.313"/>
<polygon fill="#757575" stroke="#757575" points="813.595,-91.8131 823.595,-88.313 813.594,-84.8131 813.595,-91.8131"/>
</g>
<!-- services/serviceForC.js&#45;&gt;services/serviceForA.js -->
<g id="edge19" class="edge"><title>services/serviceForC.js&#45;&gt;services/serviceForA.js</title>
<path fill="none" stroke="#757575" d="M592.12,-96.8755C504.739,-102.439 367.035,-108.127 276.246,-109.971"/>
<polygon fill="#757575" stroke="#757575" points="276.17,-106.472 266.239,-110.162 276.304,-113.471 276.17,-106.472"/>
</g>
<!-- services/serviceForC.js&#45;&gt;services/serviceForB.js -->
<g id="edge20" class="edge"><title>services/serviceForC.js&#45;&gt;services/serviceForB.js</title>
<path fill="none" stroke="#757575" d="M651.322,-99.8913C612.695,-115.235 533.889,-141.398 478.025,-157.908"/>
<polygon fill="#757575" stroke="#757575" points="476.841,-154.607 468.225,-160.773 478.805,-161.326 476.841,-154.607"/>
</g>
<!-- services/serviceForC.js&#45;&gt;services/GenericService.js -->
<g id="edge18" class="edge"><title>services/serviceForC.js&#45;&gt;services/GenericService.js</title>
<path fill="none" stroke="#757575" d="M744.342,-99.816C779.207,-105.728 821.862,-112.96 858.073,-119.1"/>
<polygon fill="#757575" stroke="#757575" points="857.66,-122.58 868.104,-120.801 858.83,-115.678 857.66,-122.58"/>
</g>
</g>
</svg>
