<?xml version="1.0" encoding="UTF-8" standalone="no"?>
<!DOCTYPE svg PUBLIC "-//W3C//DTD SVG 1.1//EN"
 "http://www.w3.org/Graphics/SVG/1.1/DTD/svg11.dtd">
<!-- Generated by graphviz version 2.38.0 (20140413.2041)
 -->
<!-- Title: G Pages: 1 -->
<svg width="1260pt" height="466pt"
 viewBox="0.00 0.00 1260.20 466.20" xmlns="http://www.w3.org/2000/svg" xmlns:xlink="http://www.w3.org/1999/xlink">
<g id="graph0" class="graph" transform="scale(1 1) rotate(0) translate(21.6 444.6)">
<title>G</title>
<polygon fill="#111111" stroke="none" points="-21.6,21.6 -21.6,-444.6 1238.6,-444.6 1238.6,21.6 -21.6,21.6"/>
<!-- config/index.js -->
<g id="node1" class="node"><title>config/index.js</title>
<path fill="none" stroke="#cfffac" d="M229.833,-423C229.833,-423 138.167,-423 138.167,-423 134.333,-423 130.5,-419.167 130.5,-415.333 130.5,-415.333 130.5,-407.667 130.5,-407.667 130.5,-403.833 134.333,-400 138.167,-400 138.167,-400 229.833,-400 229.833,-400 233.667,-400 237.5,-403.833 237.5,-407.667 237.5,-407.667 237.5,-415.333 237.5,-415.333 237.5,-419.167 233.667,-423 229.833,-423"/>
<text text-anchor="middle" x="184" y="-407.8" font-family="Arial" font-size="14.00" fill="#cfffac">config/index.js</text>
</g>
<!-- dataHandlers/GenericDataHandler.js -->
<g id="node2" class="node"><title>dataHandlers/GenericDataHandler.js</title>
<path fill="none" stroke="#cfffac" d="M803.333,-242C803.333,-242 572.667,-242 572.667,-242 568.833,-242 565,-238.167 565,-234.333 565,-234.333 565,-226.667 565,-226.667 565,-222.833 568.833,-219 572.667,-219 572.667,-219 803.333,-219 803.333,-219 807.167,-219 811,-222.833 811,-226.667 811,-226.667 811,-234.333 811,-234.333 811,-238.167 807.167,-242 803.333,-242"/>
<text text-anchor="middle" x="688" y="-226.8" font-family="Arial" font-size="14.00" fill="#cfffac">dataHandlers/GenericDataHandler.js</text>
</g>
<!-- dataHandlers/dataHandlerForA.js -->
<g id="node3" class="node"><title>dataHandlers/dataHandlerForA.js</title>
<path fill="none" stroke="#c6c5fe" d="M520.833,-343C520.833,-343 311.167,-343 311.167,-343 307.333,-343 303.5,-339.167 303.5,-335.333 303.5,-335.333 303.5,-327.667 303.5,-327.667 303.5,-323.833 307.333,-320 311.167,-320 311.167,-320 520.833,-320 520.833,-320 524.667,-320 528.5,-323.833 528.5,-327.667 528.5,-327.667 528.5,-335.333 528.5,-335.333 528.5,-339.167 524.667,-343 520.833,-343"/>
<text text-anchor="middle" x="416" y="-327.8" font-family="Arial" font-size="14.00" fill="#c6c5fe">dataHandlers/dataHandlerForA.js</text>
</g>
<!-- dataHandlers/dataHandlerForA.js&#45;&gt;dataHandlers/GenericDataHandler.js -->
<g id="edge1" class="edge"><title>dataHandlers/dataHandlerForA.js&#45;&gt;dataHandlers/GenericDataHandler.js</title>
<path fill="none" stroke="#757575" d="M513.889,-319.88C519.199,-317.522 524.284,-314.751 529,-311.5 554.604,-293.85 539.341,-269.07 565,-251.5 567.62,-249.706 570.343,-248.049 573.15,-246.52"/>
<polygon fill="#757575" stroke="#757575" points="574.896,-249.563 582.372,-242.056 571.846,-243.263 574.896,-249.563"/>
</g>
<!-- db/index.js -->
<g id="node4" class="node"><title>db/index.js</title>
<path fill="none" stroke="#c6c5fe" d="M722.833,-283C722.833,-283 653.167,-283 653.167,-283 649.333,-283 645.5,-279.167 645.5,-275.333 645.5,-275.333 645.5,-267.667 645.5,-267.667 645.5,-263.833 649.333,-260 653.167,-260 653.167,-260 722.833,-260 722.833,-260 726.667,-260 730.5,-263.833 730.5,-267.667 730.5,-267.667 730.5,-275.333 730.5,-275.333 730.5,-279.167 726.667,-283 722.833,-283"/>
<text text-anchor="middle" x="688" y="-267.8" font-family="Arial" font-size="14.00" fill="#c6c5fe">db/index.js</text>
</g>
<!-- dataHandlers/dataHandlerForA.js&#45;&gt;db/index.js -->
<g id="edge2" class="edge"><title>dataHandlers/dataHandlerForA.js&#45;&gt;db/index.js</title>
<path fill="none" stroke="#757575" d="M486.158,-319.947C500.364,-317.35 515.194,-314.476 529,-311.5 564.661,-303.812 604.477,-293.722 635.218,-285.6"/>
<polygon fill="#757575" stroke="#757575" points="636.51,-288.878 645.276,-282.927 634.712,-282.113 636.51,-288.878"/>
</g>
<!-- db/Schemas/SchemaA.js -->
<g id="node7" class="node"><title>db/Schemas/SchemaA.js</title>
<path fill="none" stroke="#cfffac" d="M1016.83,-324C1016.83,-324 855.167,-324 855.167,-324 851.333,-324 847.5,-320.167 847.5,-316.333 847.5,-316.333 847.5,-308.667 847.5,-308.667 847.5,-304.833 851.333,-301 855.167,-301 855.167,-301 1016.83,-301 1016.83,-301 1020.67,-301 1024.5,-304.833 1024.5,-308.667 1024.5,-308.667 1024.5,-316.333 1024.5,-316.333 1024.5,-320.167 1020.67,-324 1016.83,-324"/>
<text text-anchor="middle" x="936" y="-308.8" font-family="Arial" font-size="14.00" fill="#cfffac">db/Schemas/SchemaA.js</text>
</g>
<!-- db/index.js&#45;&gt;db/Schemas/SchemaA.js -->
<g id="edge7" class="edge"><title>db/index.js&#45;&gt;db/Schemas/SchemaA.js</title>
<path fill="none" stroke="#757575" d="M730.731,-278.455C764.796,-284.133 813.916,-292.319 855.45,-299.242"/>
<polygon fill="#757575" stroke="#757575" points="855.117,-302.734 865.557,-300.926 856.268,-295.83 855.117,-302.734"/>
</g>
<!-- db/Schemas/SchemaB.js -->
<g id="node8" class="node"><title>db/Schemas/SchemaB.js</title>
<path fill="none" stroke="#cfffac" d="M1016.83,-283C1016.83,-283 855.167,-283 855.167,-283 851.333,-283 847.5,-279.167 847.5,-275.333 847.5,-275.333 847.5,-267.667 847.5,-267.667 847.5,-263.833 851.333,-260 855.167,-260 855.167,-260 1016.83,-260 1016.83,-260 1020.67,-260 1024.5,-263.833 1024.5,-267.667 1024.5,-267.667 1024.5,-275.333 1024.5,-275.333 1024.5,-279.167 1020.67,-283 1016.83,-283"/>
<text text-anchor="middle" x="936" y="-267.8" font-family="Arial" font-size="14.00" fill="#cfffac">db/Schemas/SchemaB.js</text>
</g>
<!-- db/index.js&#45;&gt;db/Schemas/SchemaB.js -->
<g id="edge8" class="edge"><title>db/index.js&#45;&gt;db/Schemas/SchemaB.js</title>
<path fill="none" stroke="#757575" d="M730.731,-271.5C759.863,-271.5 800.004,-271.5 836.996,-271.5"/>
<polygon fill="#757575" stroke="#757575" points="837.335,-275 847.335,-271.5 837.334,-268 837.335,-275"/>
</g>
<!-- db/Schemas/SchemaC.js -->
<g id="node9" class="node"><title>db/Schemas/SchemaC.js</title>
<path fill="none" stroke="#cfffac" d="M1017.33,-242C1017.33,-242 854.667,-242 854.667,-242 850.833,-242 847,-238.167 847,-234.333 847,-234.333 847,-226.667 847,-226.667 847,-222.833 850.833,-219 854.667,-219 854.667,-219 1017.33,-219 1017.33,-219 1021.17,-219 1025,-222.833 1025,-226.667 1025,-226.667 1025,-234.333 1025,-234.333 1025,-238.167 1021.17,-242 1017.33,-242"/>
<text text-anchor="middle" x="936" y="-226.8" font-family="Arial" font-size="14.00" fill="#cfffac">db/Schemas/SchemaC.js</text>
</g>
<!-- db/index.js&#45;&gt;db/Schemas/SchemaC.js -->
<g id="edge9" class="edge"><title>db/index.js&#45;&gt;db/Schemas/SchemaC.js</title>
<path fill="none" stroke="#757575" d="M730.512,-264.75C754.115,-260.899 784.218,-255.963 811,-251.5 826.017,-248.997 842.053,-246.3 857.438,-243.7"/>
<polygon fill="#757575" stroke="#757575" points="858.161,-247.128 867.437,-242.008 856.994,-240.226 858.161,-247.128"/>
</g>
<!-- hooks/hookForA.js -->
<g id="node10" class="node"><title>hooks/hookForA.js</title>
<path fill="none" stroke="#c6c5fe" d="M995.833,-182C995.833,-182 876.167,-182 876.167,-182 872.333,-182 868.5,-178.167 868.5,-174.333 868.5,-174.333 868.5,-166.667 868.5,-166.667 868.5,-162.833 872.333,-159 876.167,-159 876.167,-159 995.833,-159 995.833,-159 999.667,-159 1003.5,-162.833 1003.5,-166.667 1003.5,-166.667 1003.5,-174.333 1003.5,-174.333 1003.5,-178.167 999.667,-182 995.833,-182"/>
<text text-anchor="middle" x="936" y="-166.8" font-family="Arial" font-size="14.00" fill="#c6c5fe">hooks/hookForA.js</text>
</g>
<!-- db/index.js&#45;&gt;hooks/hookForA.js -->
<g id="edge10" class="edge"><title>db/index.js&#45;&gt;hooks/hookForA.js</title>
<path fill="none" stroke="#757575" d="M730.553,-271.587C755.281,-270.017 786.505,-265.085 811,-251.5 832.207,-239.739 827.527,-224.951 847,-210.5 860.376,-200.573 876.609,-192.331 891.473,-185.959"/>
<polygon fill="#757575" stroke="#757575" points="893.08,-189.083 900.998,-182.043 890.419,-182.608 893.08,-189.083"/>
</g>
<!-- hooks/hookForB.js -->
<g id="node11" class="node"><title>hooks/hookForB.js</title>
<path fill="none" stroke="#c6c5fe" d="M995.833,-141C995.833,-141 876.167,-141 876.167,-141 872.333,-141 868.5,-137.167 868.5,-133.333 868.5,-133.333 868.5,-125.667 868.5,-125.667 868.5,-121.833 872.333,-118 876.167,-118 876.167,-118 995.833,-118 995.833,-118 999.667,-118 1003.5,-121.833 1003.5,-125.667 1003.5,-125.667 1003.5,-133.333 1003.5,-133.333 1003.5,-137.167 999.667,-141 995.833,-141"/>
<text text-anchor="middle" x="936" y="-125.8" font-family="Arial" font-size="14.00" fill="#c6c5fe">hooks/hookForB.js</text>
</g>
<!-- db/index.js&#45;&gt;hooks/hookForB.js -->
<g id="edge11" class="edge"><title>db/index.js&#45;&gt;hooks/hookForB.js</title>
<path fill="none" stroke="#757575" d="M730.669,-274.758C756.527,-274.544 788.918,-269.928 811,-251.5 847.588,-220.966 811.531,-182.327 847,-150.5 850.679,-147.199 854.783,-144.392 859.152,-142.008"/>
<polygon fill="#757575" stroke="#757575" points="860.852,-145.077 868.442,-137.685 857.899,-138.731 860.852,-145.077"/>
</g>
<!-- hooks/hookForC.js -->
<g id="node12" class="node"><title>hooks/hookForC.js</title>
<path fill="none" stroke="#c6c5fe" d="M996.333,-100C996.333,-100 875.667,-100 875.667,-100 871.833,-100 868,-96.1667 868,-92.3333 868,-92.3333 868,-84.6667 868,-84.6667 868,-80.8333 871.833,-77 875.667,-77 875.667,-77 996.333,-77 996.333,-77 1000.17,-77 1004,-80.8333 1004,-84.6667 1004,-84.6667 1004,-92.3333 1004,-92.3333 1004,-96.1667 1000.17,-100 996.333,-100"/>
<text text-anchor="middle" x="936" y="-84.8" font-family="Arial" font-size="14.00" fill="#c6c5fe">hooks/hookForC.js</text>
</g>
<!-- db/index.js&#45;&gt;hooks/hookForC.js -->
<g id="edge12" class="edge"><title>db/index.js&#45;&gt;hooks/hookForC.js</title>
<path fill="none" stroke="#757575" d="M730.693,-275.45C756.892,-275.582 789.651,-271.091 811,-251.5 858.97,-207.479 800.64,-155.214 847,-109.5 850.519,-106.03 854.503,-103.095 858.784,-100.617"/>
<polygon fill="#757575" stroke="#757575" points="860.487,-103.681 867.935,-96.1465 857.414,-97.3913 860.487,-103.681"/>
</g>
<!-- dataHandlers/dataHandlerForB.js -->
<g id="node5" class="node"><title>dataHandlers/dataHandlerForB.js</title>
<path fill="none" stroke="#c6c5fe" d="M520.833,-302C520.833,-302 311.167,-302 311.167,-302 307.333,-302 303.5,-298.167 303.5,-294.333 303.5,-294.333 303.5,-286.667 303.5,-286.667 303.5,-282.833 307.333,-279 311.167,-279 311.167,-279 520.833,-279 520.833,-279 524.667,-279 528.5,-282.833 528.5,-286.667 528.5,-286.667 528.5,-294.333 528.5,-294.333 528.5,-298.167 524.667,-302 520.833,-302"/>
<text text-anchor="middle" x="416" y="-286.8" font-family="Arial" font-size="14.00" fill="#c6c5fe">dataHandlers/dataHandlerForB.js</text>
</g>
<!-- dataHandlers/dataHandlerForB.js&#45;&gt;dataHandlers/GenericDataHandler.js -->
<g id="edge3" class="edge"><title>dataHandlers/dataHandlerForB.js&#45;&gt;dataHandlers/GenericDataHandler.js</title>
<path fill="none" stroke="#757575" d="M498.81,-278.934C509.099,-276.594 519.38,-273.807 529,-270.5 546.109,-264.618 547.873,-257.329 565,-251.5 572.97,-248.788 581.357,-246.413 589.848,-244.338"/>
<polygon fill="#757575" stroke="#757575" points="590.884,-247.691 599.843,-242.036 589.313,-240.869 590.884,-247.691"/>
</g>
<!-- dataHandlers/dataHandlerForB.js&#45;&gt;db/index.js -->
<g id="edge4" class="edge"><title>dataHandlers/dataHandlerForB.js&#45;&gt;db/index.js</title>
<path fill="none" stroke="#757575" d="M528.768,-282.635C565.624,-280.041 604.862,-277.28 635.044,-275.156"/>
<polygon fill="#757575" stroke="#757575" points="635.594,-278.626 645.323,-274.433 635.102,-271.643 635.594,-278.626"/>
</g>
<!-- dataHandlers/dataHandlerForC.js -->
<g id="node6" class="node"><title>dataHandlers/dataHandlerForC.js</title>
<path fill="none" stroke="#c6c5fe" d="M521.333,-179C521.333,-179 310.667,-179 310.667,-179 306.833,-179 303,-175.167 303,-171.333 303,-171.333 303,-163.667 303,-163.667 303,-159.833 306.833,-156 310.667,-156 310.667,-156 521.333,-156 521.333,-156 525.167,-156 529,-159.833 529,-163.667 529,-163.667 529,-171.333 529,-171.333 529,-175.167 525.167,-179 521.333,-179"/>
<text text-anchor="middle" x="416" y="-163.8" font-family="Arial" font-size="14.00" fill="#c6c5fe">dataHandlers/dataHandlerForC.js</text>
</g>
<!-- dataHandlers/dataHandlerForC.js&#45;&gt;dataHandlers/GenericDataHandler.js -->
<g id="edge5" class="edge"><title>dataHandlers/dataHandlerForC.js&#45;&gt;dataHandlers/GenericDataHandler.js</title>
<path fill="none" stroke="#757575" d="M482.906,-179.011C498.09,-181.898 514.143,-185.137 529,-188.5 565.47,-196.754 606.247,-207.636 637.24,-216.255"/>
<polygon fill="#757575" stroke="#757575" points="636.368,-219.645 646.941,-218.967 638.253,-212.904 636.368,-219.645"/>
</g>
<!-- dataHandlers/dataHandlerForC.js&#45;&gt;db/index.js -->
<g id="edge6" class="edge"><title>dataHandlers/dataHandlerForC.js&#45;&gt;db/index.js</title>
<path fill="none" stroke="#757575" d="M512.064,-179.046C518.048,-181.652 523.762,-184.772 529,-188.5 555.275,-207.198 538.513,-233.103 565,-251.5 585.27,-265.579 611.944,-271.045 635.179,-272.796"/>
<polygon fill="#757575" stroke="#757575" points="635.061,-276.294 645.237,-273.344 635.442,-269.305 635.061,-276.294"/>
</g>
<!-- hooks/GenericHook.js -->
<g id="node15" class="node"><title>hooks/GenericHook.js</title>
<path fill="none" stroke="#cfffac" d="M1209.33,-141C1209.33,-141 1068.67,-141 1068.67,-141 1064.83,-141 1061,-137.167 1061,-133.333 1061,-133.333 1061,-125.667 1061,-125.667 1061,-121.833 1064.83,-118 1068.67,-118 1068.67,-118 1209.33,-118 1209.33,-118 1213.17,-118 1217,-121.833 1217,-125.667 1217,-125.667 1217,-133.333 1217,-133.333 1217,-137.167 1213.17,-141 1209.33,-141"/>
<text text-anchor="middle" x="1139" y="-125.8" font-family="Arial" font-size="14.00" fill="#cfffac">hooks/GenericHook.js</text>
</g>
<!-- hooks/hookForA.js&#45;&gt;hooks/GenericHook.js -->
<g id="edge13" class="edge"><title>hooks/hookForA.js&#45;&gt;hooks/GenericHook.js</title>
<path fill="none" stroke="#757575" d="M993.525,-158.97C1017.82,-154.015 1046.38,-148.188 1071.67,-143.03"/>
<polygon fill="#757575" stroke="#757575" points="1072.45,-146.442 1081.55,-141.014 1071.05,-139.584 1072.45,-146.442"/>
</g>
<!-- hooks/hookForB.js&#45;&gt;hooks/GenericHook.js -->
<g id="edge14" class="edge"><title>hooks/hookForB.js&#45;&gt;hooks/GenericHook.js</title>
<path fill="none" stroke="#757575" d="M1003.65,-129.5C1018.65,-129.5 1034.79,-129.5 1050.49,-129.5"/>
<polygon fill="#757575" stroke="#757575" points="1050.74,-133 1060.74,-129.5 1050.74,-126 1050.74,-133"/>
</g>
<!-- hooks/hookForC.js&#45;&gt;hooks/GenericHook.js -->
<g id="edge15" class="edge"><title>hooks/hookForC.js&#45;&gt;hooks/GenericHook.js</title>
<path fill="none" stroke="#757575" d="M993.525,-100.03C1017.82,-104.985 1046.38,-110.812 1071.67,-115.97"/>
<polygon fill="#757575" stroke="#757575" points="1071.05,-119.416 1081.55,-117.986 1072.45,-112.558 1071.05,-119.416"/>
</g>
<!-- event/index.js -->
<g id="node13" class="node"><title>event/index.js</title>
<path fill="none" stroke="#cfffac" d="M227.833,-23C227.833,-23 140.167,-23 140.167,-23 136.333,-23 132.5,-19.1667 132.5,-15.3333 132.5,-15.3333 132.5,-7.66667 132.5,-7.66667 132.5,-3.83333 136.333,-0 140.167,-0 140.167,-0 227.833,-0 227.833,-0 231.667,-0 235.5,-3.83333 235.5,-7.66667 235.5,-7.66667 235.5,-15.3333 235.5,-15.3333 235.5,-19.1667 231.667,-23 227.833,-23"/>
<text text-anchor="middle" x="184" y="-7.8" font-family="Arial" font-size="14.00" fill="#cfffac">event/index.js</text>
</g>
<!-- helpers/index.js -->
<g id="node14" class="node"><title>helpers/index.js</title>
<path fill="none" stroke="#cfffac" d="M466.333,-261C466.333,-261 365.667,-261 365.667,-261 361.833,-261 358,-257.167 358,-253.333 358,-253.333 358,-245.667 358,-245.667 358,-241.833 361.833,-238 365.667,-238 365.667,-238 466.333,-238 466.333,-238 470.167,-238 474,-241.833 474,-245.667 474,-245.667 474,-253.333 474,-253.333 474,-257.167 470.167,-261 466.333,-261"/>
<text text-anchor="middle" x="416" y="-245.8" font-family="Arial" font-size="14.00" fill="#cfffac">helpers/index.js</text>
</g>
<!-- index.js -->
<g id="node16" class="node"><title>index.js</title>
<path fill="none" stroke="#c6c5fe" d="M57.3333,-179C57.3333,-179 7.66667,-179 7.66667,-179 3.83333,-179 0,-175.167 0,-171.333 0,-171.333 0,-163.667 0,-163.667 0,-159.833 3.83333,-156 7.66667,-156 7.66667,-156 57.3333,-156 57.3333,-156 61.1667,-156 65,-159.833 65,-163.667 65,-163.667 65,-171.333 65,-171.333 65,-175.167 61.1667,-179 57.3333,-179"/>
<text text-anchor="middle" x="32.5" y="-163.8" font-family="Arial" font-size="14.00" fill="#c6c5fe">index.js</text>
</g>
<!-- index.js&#45;&gt;config/index.js -->
<g id="edge16" class="edge"><title>index.js&#45;&gt;config/index.js</title>
<path fill="none" stroke="#757575" d="M33.5509,-179.325C34.3621,-215.512 41.8086,-325.906 101,-385.5 106.624,-391.162 113.473,-395.594 120.791,-399.061"/>
<polygon fill="#757575" stroke="#757575" points="119.674,-402.386 130.253,-402.958 122.339,-395.914 119.674,-402.386"/>
</g>
<!-- index.js&#45;&gt;db/index.js -->
<g id="edge17" class="edge"><title>index.js&#45;&gt;db/index.js</title>
<path fill="none" stroke="#757575" d="M38.2446,-179.033C47.4082,-199.994 69.4578,-244.565 101,-270.5 175.842,-332.037 207.902,-333.934 303,-352.5 401.583,-371.747 431.36,-376.07 529,-352.5 579.78,-340.242 632.569,-308.717 662.453,-288.806"/>
<polygon fill="#757575" stroke="#757575" points="664.653,-291.543 670.965,-283.033 660.724,-285.749 664.653,-291.543"/>
</g>
<!-- index.js&#45;&gt;hooks/hookForA.js -->
<g id="edge19" class="edge"><title>index.js&#45;&gt;hooks/hookForA.js</title>
<path fill="none" stroke="#757575" d="M65.0118,-156.119C76.2174,-152.621 89.0252,-149.237 101,-147.5 377.3,-107.428 710.326,-140.737 858.023,-159.643"/>
<polygon fill="#757575" stroke="#757575" points="857.967,-163.165 868.333,-160.978 858.866,-156.223 857.967,-163.165"/>
</g>
<!-- index.js&#45;&gt;hooks/hookForB.js -->
<g id="edge20" class="edge"><title>index.js&#45;&gt;hooks/hookForB.js</title>
<path fill="none" stroke="#757575" d="M48.0025,-155.842C61.0123,-146.168 81.0723,-133.12 101,-127.5 187.416,-103.127 213.215,-125.167 303,-124.5 503.17,-123.014 739.001,-126.185 858.012,-128.13"/>
<polygon fill="#757575" stroke="#757575" points="858.06,-131.632 868.117,-128.297 858.176,-124.632 858.06,-131.632"/>
</g>
<!-- index.js&#45;&gt;hooks/hookForC.js -->
<g id="edge21" class="edge"><title>index.js&#45;&gt;hooks/hookForC.js</title>
<path fill="none" stroke="#757575" d="M43.033,-155.874C54.9575,-142.322 76.7746,-120.62 101,-111.5 367.187,-11.2883 715.709,-51.2779 863.644,-75.3479"/>
<polygon fill="#757575" stroke="#757575" points="863.083,-78.8027 873.52,-76.98 864.225,-71.8963 863.083,-78.8027"/>
</g>
<!-- index.js&#45;&gt;event/index.js -->
<g id="edge18" class="edge"><title>index.js&#45;&gt;event/index.js</title>
<path fill="none" stroke="#757575" d="M36.2897,-155.881C42.9681,-130.563 62.2764,-70.081 101,-37.5 107.337,-32.1682 114.776,-27.9263 122.543,-24.5523"/>
<polygon fill="#757575" stroke="#757575" points="124.058,-27.7191 132.127,-20.8523 121.537,-21.1889 124.058,-27.7191"/>
</g>
<!-- services/serviceForA.js -->
<g id="node17" class="node"><title>services/serviceForA.js</title>
<path fill="none" stroke="#c6c5fe" d="M258.833,-261C258.833,-261 109.167,-261 109.167,-261 105.333,-261 101.5,-257.167 101.5,-253.333 101.5,-253.333 101.5,-245.667 101.5,-245.667 101.5,-241.833 105.333,-238 109.167,-238 109.167,-238 258.833,-238 258.833,-238 262.667,-238 266.5,-241.833 266.5,-245.667 266.5,-245.667 266.5,-253.333 266.5,-253.333 266.5,-257.167 262.667,-261 258.833,-261"/>
<text text-anchor="middle" x="184" y="-245.8" font-family="Arial" font-size="14.00" fill="#c6c5fe">services/serviceForA.js</text>
</g>
<!-- index.js&#45;&gt;services/serviceForA.js -->
<g id="edge22" class="edge"><title>index.js&#45;&gt;services/serviceForA.js</title>
<path fill="none" stroke="#757575" d="M43.1589,-179.471C55.2074,-193.588 77.1465,-216.743 101,-229.5 104.295,-231.262 107.747,-232.872 111.293,-234.342"/>
<polygon fill="#757575" stroke="#757575" points="110.259,-237.692 120.851,-237.915 112.71,-231.135 110.259,-237.692"/>
</g>
<!-- services/serviceForB.js -->
<g id="node18" class="node"><title>services/serviceForB.js</title>
<path fill="none" stroke="#c6c5fe" d="M258.833,-220C258.833,-220 109.167,-220 109.167,-220 105.333,-220 101.5,-216.167 101.5,-212.333 101.5,-212.333 101.5,-204.667 101.5,-204.667 101.5,-200.833 105.333,-197 109.167,-197 109.167,-197 258.833,-197 258.833,-197 262.667,-197 266.5,-200.833 266.5,-204.667 266.5,-204.667 266.5,-212.333 266.5,-212.333 266.5,-216.167 262.667,-220 258.833,-220"/>
<text text-anchor="middle" x="184" y="-204.8" font-family="Arial" font-size="14.00" fill="#c6c5fe">services/serviceForB.js</text>
</g>
<!-- index.js&#45;&gt;services/serviceForB.js -->
<g id="edge23" class="edge"><title>index.js&#45;&gt;services/serviceForB.js</title>
<path fill="none" stroke="#757575" d="M65.3123,-177.845C76.5441,-181.378 89.2915,-185.254 101,-188.5 108.266,-190.514 115.923,-192.527 123.522,-194.457"/>
<polygon fill="#757575" stroke="#757575" points="122.888,-197.906 133.438,-196.94 124.588,-191.116 122.888,-197.906"/>
</g>
<!-- services/serviceForC.js -->
<g id="node19" class="node"><title>services/serviceForC.js</title>
<path fill="none" stroke="#c6c5fe" d="M259.333,-179C259.333,-179 108.667,-179 108.667,-179 104.833,-179 101,-175.167 101,-171.333 101,-171.333 101,-163.667 101,-163.667 101,-159.833 104.833,-156 108.667,-156 108.667,-156 259.333,-156 259.333,-156 263.167,-156 267,-159.833 267,-163.667 267,-163.667 267,-171.333 267,-171.333 267,-175.167 263.167,-179 259.333,-179"/>
<text text-anchor="middle" x="184" y="-163.8" font-family="Arial" font-size="14.00" fill="#c6c5fe">services/serviceForC.js</text>
</g>
<!-- index.js&#45;&gt;services/serviceForC.js -->
<g id="edge24" class="edge"><title>index.js&#45;&gt;services/serviceForC.js</title>
<path fill="none" stroke="#757575" d="M65.2051,-167.5C73.0102,-167.5 81.7652,-167.5 90.8851,-167.5"/>
<polygon fill="#757575" stroke="#757575" points="90.8969,-171 100.897,-167.5 90.8969,-164 90.8969,-171"/>
</g>
<!-- services/serviceForA.js&#45;&gt;dataHandlers/dataHandlerForA.js -->
<g id="edge25" class="edge"><title>services/serviceForA.js&#45;&gt;dataHandlers/dataHandlerForA.js</title>
<path fill="none" stroke="#757575" d="M203.007,-261.222C225.492,-275.315 265.566,-298.668 303,-311.5 309.528,-313.738 316.36,-315.737 323.292,-317.522"/>
<polygon fill="#757575" stroke="#757575" points="322.953,-321.04 333.495,-319.985 324.596,-314.236 322.953,-321.04"/>
</g>
<!-- services/serviceForA.js&#45;&gt;helpers/index.js -->
<g id="edge26" class="edge"><title>services/serviceForA.js&#45;&gt;helpers/index.js</title>
<path fill="none" stroke="#757575" d="M266.737,-249.5C293.179,-249.5 322.187,-249.5 347.479,-249.5"/>
<polygon fill="#757575" stroke="#757575" points="347.705,-253 357.705,-249.5 347.705,-246 347.705,-253"/>
</g>
<!-- services/GenericService.js -->
<g id="node20" class="node"><title>services/GenericService.js</title>
<path fill="none" stroke="#cfffac" d="M501.333,-220C501.333,-220 330.667,-220 330.667,-220 326.833,-220 323,-216.167 323,-212.333 323,-212.333 323,-204.667 323,-204.667 323,-200.833 326.833,-197 330.667,-197 330.667,-197 501.333,-197 501.333,-197 505.167,-197 509,-200.833 509,-204.667 509,-204.667 509,-212.333 509,-212.333 509,-216.167 505.167,-220 501.333,-220"/>
<text text-anchor="middle" x="416" y="-204.8" font-family="Arial" font-size="14.00" fill="#cfffac">services/GenericService.js</text>
</g>
<!-- services/serviceForA.js&#45;&gt;services/GenericService.js -->
<g id="edge27" class="edge"><title>services/serviceForA.js&#45;&gt;services/GenericService.js</title>
<path fill="none" stroke="#757575" d="M249.68,-237.97C277.848,-232.949 311.034,-227.033 340.253,-221.825"/>
<polygon fill="#757575" stroke="#757575" points="341.177,-225.215 350.407,-220.014 339.948,-218.324 341.177,-225.215"/>
</g>
<!-- services/serviceForB.js&#45;&gt;dataHandlers/dataHandlerForB.js -->
<g id="edge28" class="edge"><title>services/serviceForB.js&#45;&gt;dataHandlers/dataHandlerForB.js</title>
<path fill="none" stroke="#757575" d="M247.1,-220.098C254.071,-222.639 260.863,-225.733 267,-229.5 287.667,-242.185 281.877,-258.588 303,-270.5 305.925,-272.149 308.955,-273.668 312.064,-275.066"/>
<polygon fill="#757575" stroke="#757575" points="311.016,-278.417 321.599,-278.907 313.631,-271.924 311.016,-278.417"/>
</g>
<!-- services/serviceForB.js&#45;&gt;helpers/index.js -->
<g id="edge29" class="edge"><title>services/serviceForB.js&#45;&gt;helpers/index.js</title>
<path fill="none" stroke="#757575" d="M249.68,-220.03C280.372,-225.501 317.022,-232.034 348.005,-237.557"/>
<polygon fill="#757575" stroke="#757575" points="347.391,-241.003 357.851,-239.312 348.62,-234.112 347.391,-241.003"/>
</g>
<!-- services/serviceForB.js&#45;&gt;services/GenericService.js -->
<g id="edge30" class="edge"><title>services/serviceForB.js&#45;&gt;services/GenericService.js</title>
<path fill="none" stroke="#757575" d="M266.737,-208.5C281.671,-208.5 297.425,-208.5 312.865,-208.5"/>
<polygon fill="#757575" stroke="#757575" points="312.954,-212 322.954,-208.5 312.954,-205 312.954,-212"/>
</g>
<!-- services/serviceForC.js&#45;&gt;dataHandlers/dataHandlerForC.js -->
<g id="edge31" class="edge"><title>services/serviceForC.js&#45;&gt;dataHandlers/dataHandlerForC.js</title>
<path fill="none" stroke="#757575" d="M267.061,-167.5C275.406,-167.5 284.004,-167.5 292.658,-167.5"/>
<polygon fill="#757575" stroke="#757575" points="292.831,-171 302.831,-167.5 292.831,-164 292.831,-171"/>
</g>
<!-- services/serviceForC.js&#45;&gt;helpers/index.js -->
<g id="edge32" class="edge"><title>services/serviceForC.js&#45;&gt;helpers/index.js</title>
<path fill="none" stroke="#757575" d="M247.1,-179.098C254.071,-181.639 260.863,-184.733 267,-188.5 287.667,-201.185 281.877,-217.588 303,-229.5 316.549,-237.141 332.36,-241.973 347.76,-245.002"/>
<polygon fill="#757575" stroke="#757575" points="347.342,-248.481 357.793,-246.743 348.539,-241.585 347.342,-248.481"/>
</g>
<!-- services/serviceForC.js&#45;&gt;services/GenericService.js -->
<g id="edge33" class="edge"><title>services/serviceForC.js&#45;&gt;services/GenericService.js</title>
<path fill="none" stroke="#757575" d="M249.68,-179.03C277.848,-184.051 311.034,-189.967 340.253,-195.175"/>
<polygon fill="#757575" stroke="#757575" points="339.948,-198.676 350.407,-196.986 341.177,-191.785 339.948,-198.676"/>
</g>
</g>
</svg>
