<?xml version="1.0" encoding="UTF-8" standalone="no"?>
<!DOCTYPE svg PUBLIC "-//W3C//DTD SVG 1.1//EN"
 "http://www.w3.org/Graphics/SVG/1.1/DTD/svg11.dtd">
<!-- Generated by graphviz version 2.38.0 (20140413.2041)
 -->
<!-- Title: G Pages: 1 -->
<svg width="854pt" height="250pt"
 viewBox="0.00 0.00 854.20 250.20" xmlns="http://www.w3.org/2000/svg" xmlns:xlink="http://www.w3.org/1999/xlink">
<g id="graph0" class="graph" transform="scale(1 1) rotate(0) translate(21.6 228.6)">
<title>G</title>
<polygon fill="#111111" stroke="none" points="-21.6,21.6 -21.6,-228.6 832.6,-228.6 832.6,21.6 -21.6,21.6"/>
<!-- config/index.js -->
<g id="node1" class="node"><title>config/index.js</title>
<path fill="none" stroke="#cfffac" d="M229.833,-207C229.833,-207 138.167,-207 138.167,-207 134.333,-207 130.5,-203.167 130.5,-199.333 130.5,-199.333 130.5,-191.667 130.5,-191.667 130.5,-187.833 134.333,-184 138.167,-184 138.167,-184 229.833,-184 229.833,-184 233.667,-184 237.5,-187.833 237.5,-191.667 237.5,-191.667 237.5,-199.333 237.5,-199.333 237.5,-203.167 233.667,-207 229.833,-207"/>
<text text-anchor="middle" x="184" y="-191.8" font-family="Arial" font-size="14.00" fill="#cfffac">config/index.js</text>
</g>
<!-- dataHandlers/GenericDataHandler.js -->
<g id="node2" class="node"><title>dataHandlers/GenericDataHandler.js</title>
<path fill="none" stroke="#cfffac" d="M803.333,-105C803.333,-105 572.667,-105 572.667,-105 568.833,-105 565,-101.167 565,-97.3333 565,-97.3333 565,-89.6667 565,-89.6667 565,-85.8333 568.833,-82 572.667,-82 572.667,-82 803.333,-82 803.333,-82 807.167,-82 811,-85.8333 811,-89.6667 811,-89.6667 811,-97.3333 811,-97.3333 811,-101.167 807.167,-105 803.333,-105"/>
<text text-anchor="middle" x="688" y="-89.8" font-family="Arial" font-size="14.00" fill="#cfffac">dataHandlers/GenericDataHandler.js</text>
</g>
<!-- dataHandlers/dataHandlerForA.js -->
<g id="node3" class="node"><title>dataHandlers/dataHandlerForA.js</title>
<path fill="none" stroke="#c6c5fe" d="M520.833,-146C520.833,-146 311.167,-146 311.167,-146 307.333,-146 303.5,-142.167 303.5,-138.333 303.5,-138.333 303.5,-130.667 303.5,-130.667 303.5,-126.833 307.333,-123 311.167,-123 311.167,-123 520.833,-123 520.833,-123 524.667,-123 528.5,-126.833 528.5,-130.667 528.5,-130.667 528.5,-138.333 528.5,-138.333 528.5,-142.167 524.667,-146 520.833,-146"/>
<text text-anchor="middle" x="416" y="-130.8" font-family="Arial" font-size="14.00" fill="#c6c5fe">dataHandlers/dataHandlerForA.js</text>
</g>
<!-- dataHandlers/dataHandlerForA.js&#45;&gt;dataHandlers/GenericDataHandler.js -->
<g id="edge1" class="edge"><title>dataHandlers/dataHandlerForA.js&#45;&gt;dataHandlers/GenericDataHandler.js</title>
<path fill="none" stroke="#757575" d="M492.929,-122.97C526.574,-117.861 566.316,-111.826 601.046,-106.552"/>
<polygon fill="#757575" stroke="#757575" points="601.813,-109.976 611.174,-105.014 600.762,-103.055 601.813,-109.976"/>
</g>
<!-- dataHandlers/dataHandlerForB.js -->
<g id="node4" class="node"><title>dataHandlers/dataHandlerForB.js</title>
<path fill="none" stroke="#c6c5fe" d="M520.833,-105C520.833,-105 311.167,-105 311.167,-105 307.333,-105 303.5,-101.167 303.5,-97.3333 303.5,-97.3333 303.5,-89.6667 303.5,-89.6667 303.5,-85.8333 307.333,-82 311.167,-82 311.167,-82 520.833,-82 520.833,-82 524.667,-82 528.5,-85.8333 528.5,-89.6667 528.5,-89.6667 528.5,-97.3333 528.5,-97.3333 528.5,-101.167 524.667,-105 520.833,-105"/>
<text text-anchor="middle" x="416" y="-89.8" font-family="Arial" font-size="14.00" fill="#c6c5fe">dataHandlers/dataHandlerForB.js</text>
</g>
<!-- dataHandlers/dataHandlerForB.js&#45;&gt;dataHandlers/GenericDataHandler.js -->
<g id="edge2" class="edge"><title>dataHandlers/dataHandlerForB.js&#45;&gt;dataHandlers/GenericDataHandler.js</title>
<path fill="none" stroke="#757575" d="M528.768,-93.5C537.319,-93.5 545.997,-93.5 554.661,-93.5"/>
<polygon fill="#757575" stroke="#757575" points="554.817,-97.0001 564.817,-93.5 554.817,-90.0001 554.817,-97.0001"/>
</g>
<!-- dataHandlers/dataHandlerForC.js -->
<g id="node5" class="node"><title>dataHandlers/dataHandlerForC.js</title>
<path fill="none" stroke="#c6c5fe" d="M521.333,-23C521.333,-23 310.667,-23 310.667,-23 306.833,-23 303,-19.1667 303,-15.3333 303,-15.3333 303,-7.66667 303,-7.66667 303,-3.83333 306.833,-0 310.667,-0 310.667,-0 521.333,-0 521.333,-0 525.167,-0 529,-3.83333 529,-7.66667 529,-7.66667 529,-15.3333 529,-15.3333 529,-19.1667 525.167,-23 521.333,-23"/>
<text text-anchor="middle" x="416" y="-7.8" font-family="Arial" font-size="14.00" fill="#c6c5fe">dataHandlers/dataHandlerForC.js</text>
</g>
<!-- dataHandlers/dataHandlerForC.js&#45;&gt;dataHandlers/GenericDataHandler.js -->
<g id="edge3" class="edge"><title>dataHandlers/dataHandlerForC.js&#45;&gt;dataHandlers/GenericDataHandler.js</title>
<path fill="none" stroke="#757575" d="M489.152,-23.0126C502.502,-25.7113 516.25,-28.8765 529,-32.5 572.447,-44.8474 620.641,-64.3397 652.243,-77.9569"/>
<polygon fill="#757575" stroke="#757575" points="650.928,-81.2016 661.494,-81.9799 653.719,-74.7823 650.928,-81.2016"/>
</g>
<!-- event/index.js -->
<g id="node6" class="node"><title>event/index.js</title>
<path fill="none" stroke="#cfffac" d="M227.833,-166C227.833,-166 140.167,-166 140.167,-166 136.333,-166 132.5,-162.167 132.5,-158.333 132.5,-158.333 132.5,-150.667 132.5,-150.667 132.5,-146.833 136.333,-143 140.167,-143 140.167,-143 227.833,-143 227.833,-143 231.667,-143 235.5,-146.833 235.5,-150.667 235.5,-150.667 235.5,-158.333 235.5,-158.333 235.5,-162.167 231.667,-166 227.833,-166"/>
<text text-anchor="middle" x="184" y="-150.8" font-family="Arial" font-size="14.00" fill="#cfffac">event/index.js</text>
</g>
<!-- index.js -->
<g id="node7" class="node"><title>index.js</title>
<path fill="none" stroke="#c6c5fe" d="M57.3333,-125C57.3333,-125 7.66667,-125 7.66667,-125 3.83333,-125 0,-121.167 0,-117.333 0,-117.333 0,-109.667 0,-109.667 0,-105.833 3.83333,-102 7.66667,-102 7.66667,-102 57.3333,-102 57.3333,-102 61.1667,-102 65,-105.833 65,-109.667 65,-109.667 65,-117.333 65,-117.333 65,-121.167 61.1667,-125 57.3333,-125"/>
<text text-anchor="middle" x="32.5" y="-109.8" font-family="Arial" font-size="14.00" fill="#c6c5fe">index.js</text>
</g>
<!-- index.js&#45;&gt;config/index.js -->
<g id="edge4" class="edge"><title>index.js&#45;&gt;config/index.js</title>
<path fill="none" stroke="#757575" d="M43.1589,-125.471C55.2074,-139.588 77.1465,-162.743 101,-175.5 107.077,-178.75 113.689,-181.481 120.434,-183.774"/>
<polygon fill="#757575" stroke="#757575" points="119.778,-187.234 130.365,-186.829 121.836,-180.543 119.778,-187.234"/>
</g>
<!-- index.js&#45;&gt;event/index.js -->
<g id="edge5" class="edge"><title>index.js&#45;&gt;event/index.js</title>
<path fill="none" stroke="#757575" d="M65.3123,-123.845C76.5441,-127.378 89.2915,-131.254 101,-134.5 108.266,-136.514 115.923,-138.527 123.522,-140.457"/>
<polygon fill="#757575" stroke="#757575" points="122.888,-143.906 133.438,-142.94 124.588,-137.116 122.888,-143.906"/>
</g>
<!-- services/serviceForA.js -->
<g id="node8" class="node"><title>services/serviceForA.js</title>
<path fill="none" stroke="#c6c5fe" d="M258.833,-125C258.833,-125 109.167,-125 109.167,-125 105.333,-125 101.5,-121.167 101.5,-117.333 101.5,-117.333 101.5,-109.667 101.5,-109.667 101.5,-105.833 105.333,-102 109.167,-102 109.167,-102 258.833,-102 258.833,-102 262.667,-102 266.5,-105.833 266.5,-109.667 266.5,-109.667 266.5,-117.333 266.5,-117.333 266.5,-121.167 262.667,-125 258.833,-125"/>
<text text-anchor="middle" x="184" y="-109.8" font-family="Arial" font-size="14.00" fill="#c6c5fe">services/serviceForA.js</text>
</g>
<!-- index.js&#45;&gt;services/serviceForA.js -->
<g id="edge6" class="edge"><title>index.js&#45;&gt;services/serviceForA.js</title>
<path fill="none" stroke="#757575" d="M65.2051,-113.5C73.0732,-113.5 81.9064,-113.5 91.1059,-113.5"/>
<polygon fill="#757575" stroke="#757575" points="91.2036,-117 101.204,-113.5 91.2036,-110 91.2036,-117"/>
</g>
<!-- services/serviceForB.js -->
<g id="node9" class="node"><title>services/serviceForB.js</title>
<path fill="none" stroke="#c6c5fe" d="M258.833,-84C258.833,-84 109.167,-84 109.167,-84 105.333,-84 101.5,-80.1667 101.5,-76.3333 101.5,-76.3333 101.5,-68.6667 101.5,-68.6667 101.5,-64.8333 105.333,-61 109.167,-61 109.167,-61 258.833,-61 258.833,-61 262.667,-61 266.5,-64.8333 266.5,-68.6667 266.5,-68.6667 266.5,-76.3333 266.5,-76.3333 266.5,-80.1667 262.667,-84 258.833,-84"/>
<text text-anchor="middle" x="184" y="-68.8" font-family="Arial" font-size="14.00" fill="#c6c5fe">services/serviceForB.js</text>
</g>
<!-- index.js&#45;&gt;services/serviceForB.js -->
<g id="edge7" class="edge"><title>index.js&#45;&gt;services/serviceForB.js</title>
<path fill="none" stroke="#757575" d="M65.0228,-103.895C76.3416,-100.516 89.2185,-96.7528 101,-93.5 109.247,-91.2231 117.984,-88.8957 126.561,-86.6585"/>
<polygon fill="#757575" stroke="#757575" points="127.714,-89.9756 136.518,-84.0822 125.96,-83.1988 127.714,-89.9756"/>
</g>
<!-- services/serviceForC.js -->
<g id="node10" class="node"><title>services/serviceForC.js</title>
<path fill="none" stroke="#c6c5fe" d="M259.333,-43C259.333,-43 108.667,-43 108.667,-43 104.833,-43 101,-39.1667 101,-35.3333 101,-35.3333 101,-27.6667 101,-27.6667 101,-23.8333 104.833,-20 108.667,-20 108.667,-20 259.333,-20 259.333,-20 263.167,-20 267,-23.8333 267,-27.6667 267,-27.6667 267,-35.3333 267,-35.3333 267,-39.1667 263.167,-43 259.333,-43"/>
<text text-anchor="middle" x="184" y="-27.8" font-family="Arial" font-size="14.00" fill="#c6c5fe">services/serviceForC.js</text>
</g>
<!-- index.js&#45;&gt;services/serviceForC.js -->
<g id="edge8" class="edge"><title>index.js&#45;&gt;services/serviceForC.js</title>
<path fill="none" stroke="#757575" d="M43.2256,-101.774C55.3395,-87.9345 77.3433,-65.2029 101,-52.5 105.042,-50.3296 109.317,-48.3763 113.71,-46.6193"/>
<polygon fill="#757575" stroke="#757575" points="115.259,-49.7803 123.465,-43.0788 112.871,-43.2003 115.259,-49.7803"/>
</g>
<!-- services/serviceForA.js&#45;&gt;dataHandlers/dataHandlerForA.js -->
<g id="edge9" class="edge"><title>services/serviceForA.js&#45;&gt;dataHandlers/dataHandlerForA.js</title>
<path fill="none" stroke="#757575" d="M266.737,-120.963C275.368,-121.751 284.272,-122.564 293.231,-123.382"/>
<polygon fill="#757575" stroke="#757575" points="293.081,-126.883 303.358,-124.307 293.718,-119.912 293.081,-126.883"/>
</g>
<!-- services/GenericService.js -->
<g id="node11" class="node"><title>services/GenericService.js</title>
<path fill="none" stroke="#cfffac" d="M501.333,-64C501.333,-64 330.667,-64 330.667,-64 326.833,-64 323,-60.1667 323,-56.3333 323,-56.3333 323,-48.6667 323,-48.6667 323,-44.8333 326.833,-41 330.667,-41 330.667,-41 501.333,-41 501.333,-41 505.167,-41 509,-44.8333 509,-48.6667 509,-48.6667 509,-56.3333 509,-56.3333 509,-60.1667 505.167,-64 501.333,-64"/>
<text text-anchor="middle" x="416" y="-48.8" font-family="Arial" font-size="14.00" fill="#cfffac">services/GenericService.js</text>
</g>
<!-- services/serviceForA.js&#45;&gt;services/GenericService.js -->
<g id="edge10" class="edge"><title>services/serviceForA.js&#45;&gt;services/GenericService.js</title>
<path fill="none" stroke="#757575" d="M241.201,-101.918C249.959,-99.5067 258.813,-96.7053 267,-93.5 284.044,-86.8273 285.783,-79.7112 303,-73.5 310.327,-70.8566 318.05,-68.5295 325.874,-66.4841"/>
<polygon fill="#757575" stroke="#757575" points="326.939,-69.8265 335.815,-64.0411 325.269,-63.0287 326.939,-69.8265"/>
</g>
<!-- services/serviceForB.js&#45;&gt;dataHandlers/dataHandlerForB.js -->
<g id="edge11" class="edge"><title>services/serviceForB.js&#45;&gt;dataHandlers/dataHandlerForB.js</title>
<path fill="none" stroke="#757575" d="M266.737,-79.9629C275.368,-80.751 284.272,-81.564 293.231,-82.382"/>
<polygon fill="#757575" stroke="#757575" points="293.081,-85.8828 303.358,-83.3066 293.718,-78.9118 293.081,-85.8828"/>
</g>
<!-- services/serviceForB.js&#45;&gt;services/GenericService.js -->
<g id="edge12" class="edge"><title>services/serviceForB.js&#45;&gt;services/GenericService.js</title>
<path fill="none" stroke="#757575" d="M266.737,-65.3924C281.671,-64.0938 297.425,-62.7239 312.865,-61.3813"/>
<polygon fill="#757575" stroke="#757575" points="313.295,-64.8572 322.954,-60.504 312.688,-57.8836 313.295,-64.8572"/>
</g>
<!-- services/serviceForC.js&#45;&gt;dataHandlers/dataHandlerForC.js -->
<g id="edge13" class="edge"><title>services/serviceForC.js&#45;&gt;dataHandlers/dataHandlerForC.js</title>
<path fill="none" stroke="#757575" d="M267.061,-24.3642C275.406,-23.6386 284.004,-22.8909 292.658,-22.1384"/>
<polygon fill="#757575" stroke="#757575" points="293.171,-25.6071 302.831,-21.2539 292.565,-18.6334 293.171,-25.6071"/>
</g>
<!-- services/serviceForC.js&#45;&gt;services/GenericService.js -->
<g id="edge14" class="edge"><title>services/serviceForC.js&#45;&gt;services/GenericService.js</title>
<path fill="none" stroke="#757575" d="M267.061,-38.9925C281.877,-40.3453 297.49,-41.7708 312.796,-43.1683"/>
<polygon fill="#757575" stroke="#757575" points="312.522,-46.6578 322.799,-44.0816 313.158,-39.6868 312.522,-46.6578"/>
</g>
</g>
</svg>
